<svg width="32" height="32" viewBox="0 0 32 32" fill="none" xmlns="http://www.w3.org/2000/svg">
<g clip-path="url(#clip0_1128_8584)">
<path d="M32 6.09998H28.95V7.61998H32V6.09998Z" fill="#000001"/>
<path d="M30.4699 10.67H28.95V12.19H30.4699V10.67Z" fill="#000001"/>
<path d="M30.4699 1.52002H28.95V3.05002H30.4699V1.52002Z" fill="#000001"/>
<path d="M28.95 9.14001H27.42V10.67H28.95V9.14001Z" fill="#000001"/>
<path d="M28.95 3.05005H27.42V4.57005H28.95V3.05005Z" fill="#000001"/>
<path d="M25.9 6.09998H24.38V9.13998H25.9V6.09998Z" fill="#000001"/>
<path d="M25.9 0H24.38V3.05H25.9V0Z" fill="#000001"/>
<path d="M24.38 9.14001H19.8V10.67H24.38V9.14001Z" fill="#000001"/>
<path d="M22.85 3.05005H21.33V4.57005H22.85V3.05005Z" fill="#000001"/>
<path d="M21.33 1.52002H19.8V3.05002H21.33V1.52002Z" fill="#000001"/>
<path d="M19.8 7.62H18.28V9.14H19.8V7.62Z" fill="#000001"/>
<path d="M18.28 6.09998H16.76V7.61998H18.28V6.09998Z" fill="#000001"/>
<path d="M16.7599 4.56995H12.1899V6.09995H16.7599V4.56995Z" fill="#000001"/>
<path d="M10.66 9.13998H7.61V12.19H4.57V13.71H3.04V15.24H1.52V18.29H0V24.38H1.52V27.43H3.04V28.95H4.57V30.48H7.61V32H15.23V30.48H18.28V28.95H19.8V27.43H21.33V24.38H22.85V18.29H21.33V15.24H19.8V13.71H18.28V12.19H15.23V9.13998H12.19V6.09998H10.66V9.13998ZM15.23 15.24H16.76V16.76H18.28V18.29H19.8V24.38H18.28V18.29H16.76V16.76H15.23V15.24ZM15.23 25.9H16.76V27.43H15.23V25.9Z" fill="#000001"/>
</g>
<defs>
<clipPath id="clip0_1128_8584">
<rect width="32" height="32" fill="white"/>
</clipPath>
</defs>
</svg>
